# xmcd
#
# Track frame offsets:
#	150
#	17529
#	33293
#	47644
#	65788
#	85096
#	101776
#	122786
#	141307
#	157962
#	175730
#	193118
#	208658
#
# Disc length: 3003 seconds
# Revision: 0
# Processed by: cddbd v1.5.2PL0 Copyright (c) Steve Scherf et al.
# Submitted via: dBpowerAMP V12.0
#
DISCID=b20bb90d
DTITLE=Justin Standley - Hold on to Love
DYEAR=2016
DGENRE=Country
TTITLE0=Water Into Wine
TTITLE1=100 Droving Days 
TTITLE2=Man Gone Missing 
TTITLE3=Sweet  Opheila 
TTITLE4=Things I Should Be Doing 
TTITLE5=The Worry Tree
TTITLE6=The Arms Of  The Widow
TTITLE7=Last and Least of All
TTITLE8='Till the Buzzer Goes Off 
TTITLE9=Thats Not Love 
TTITLE10=Beechworth Gold
TTITLE11=Hold On To Me
TTITLE12=not another love song [ 01 ]
EXTD=
EXTT0=
EXTT1=
EXTT2=
EXTT3=
EXTT4=
EXTT5=
EXTT6=
EXTT7=
EXTT8=
EXTT9=
EXTT10=
EXTT11=
EXTT12=
PLAYORDER=
